# File created by Blade
# Date/Time:  Wed Jan 28 15:39:58 2015
#---------------------------------------------------------
:version 1.10
:name HOM
:units
  mass 1.0
  length 1.000000
  angle deg
:documentation
     Acclaim Skeleton File
:root
   axis xyz
   order TX TY TZ RX RY RZ
   position 0.000000 0.000000 0.000000
   orientation 0 0 0
:bonedata
   begin
      id 1
      name Spine_dum
      direction 0.000000 1.000000 0.000000
      length 6.864287
      axis 0.0 0.0 0.0 xyz
   end
   begin
      id 2
      name LeftUpLeg_dum
      direction 1.000000 0.000000 0.000000
      length 4.117376
      axis 0.0 0.0 0.0 xyz
   end
   begin
      id 3
      name RightUpLeg_dum
      direction -1.000000 0.000000 0.000000
      length 4.117376
      axis 0.0 0.0 0.0 xyz
   end
   begin
      id 4
      name Spine
      direction 0.000000 1.000000 0.000000
      length 0.000000
      axis 0.0 0.0 0.0 xyz
      dof rx ry rz
   end
   begin
      id 5
      name Spine_dum1
      direction 0.000000 1.000000 0.000000
      length 15.393827
      axis 0.0 0.0 0.0 xyz
   end
   begin
      id 6
      name Spine_dum2
      direction 0.000000 1.000000 0.000000
      length 9.314826
      axis 0.0 0.0 0.0 xyz
   end
   begin
      id 7
      name Spine_dum3
      direction 0.000000 1.000000 0.000000
      length 9.314826
      axis 0.0 0.0 0.0 xyz
   end
   begin
      id 8
      name Head
      direction 0.000000 1.000000 0.000000
      length 4.527550
      axis 0.0 0.0 0.0 xyz
      dof rx ry rz
   end
   begin
      id 9
      name LeftShoulder
      direction 1.000000 0.000000 0.000000
      length 8.275398
      axis 0.0 0.0 -90.0 xyz
      dof rx ry rz
   end
   begin
      id 10
      name LeftArm
      direction 1.000000 0.000000 0.000000
      length 12.002200
      axis 0.0 0.0 -90.0 xyz
      dof rx ry rz
   end
   begin
      id 11
      name LeftForeArm
      direction 1.000000 0.000000 0.000000
      length 10.144633
      axis 0.0 0.0 -90.0 xyz
      dof ry rz rx
   end
   begin
      id 12
      name LeftHand
      direction 0.000000 0.000000 0.000000
      length 0.000000
      axis 0.0 0.0 -90.0 xyz
      dof rx ry rz
   end
   begin
      id 13
      name LeftHand_dum1
      direction 0.000000 0.000000 0.000000
      length 0.000000
      axis 0.0 0.0 -90.0 xyz
   end
   begin
      id 14
      name LeftHand_dum2
      direction 1.000000 0.000000 0.000000
      length 3.937000
      axis 0.0 0.0 -90.0 xyz
   end
   begin
      id 15
      name LeftHandThumb1
      direction 0.000000 0.000000 1.000000
      length 3.937000
      axis 0.0 0.0 -90.0 xyz
      dof rx rz ry
   end
   begin
      id 16
      name RightShoulder
      direction -1.000000 0.000000 0.000000
      length 8.275398
      axis 0.0 0.0 90.0 xyz
      dof rx ry rz
   end
   begin
      id 17
      name RightArm
      direction -1.000000 0.000000 0.000000
      length 12.002200
      axis 0.0 0.0 90.0 xyz
      dof rx ry rz
   end
   begin
      id 18
      name RightForeArm
      direction -1.000000 0.000000 0.000000
      length 10.144633
      axis 0.0 0.0 90.0 xyz
      dof ry rz rx
   end
   begin
      id 19
      name RightHand
      direction 0.000000 0.000000 0.000000
      length 0.000000
      axis 0.0 0.0 90.0 xyz
      dof rx ry rz
   end
   begin
      id 20
      name RightHand_dum1
      direction 0.000000 0.000000 0.000000
      length 0.000000
      axis 0.0 0.0 90.0 xyz
   end
   begin
      id 21
      name RightHand_dum2
      direction -1.000000 0.000000 0.000000
      length 3.937000
      axis 0.0 0.0 90.0 xyz
   end
   begin
      id 22
      name RightHandThumb1
      direction 0.000000 0.000000 1.000000
      length 3.937000
      axis 0.0 0.0 90.0 xyz
      dof rx rz ry
   end
   begin
      id 23
      name LeftUpLeg
      direction 0.000000 -1.000000 0.000000
      length 19.394322
      axis 0.0 0.0 0.0 xyz
      dof rx ry rz
   end
   begin
      id 24
      name LeftLeg
      direction 0.000000 -1.000000 0.000000
      length 17.609563
      axis 0.0 0.0 0.0 xyz
      dof rx ry rz
   end
   begin
      id 25
      name LeftFoot
      direction 0.000000 -0.258819 0.965926
      length 6.085393
      axis 15.0 0.0 0.0 xyz
      dof rx ry rz
   end
   begin
      id 26
      name LeftToeBase
      direction 0.000000 0.000000 1.000000
      length 2.952750
      axis 0.0 0.0 0.0 xyz
      dof rx ry rz
   end
   begin
      id 27
      name RightUpLeg
      direction 0.000000 -1.000000 0.000000
      length 19.394322
      axis 0.0 0.0 0.0 xyz
      dof rx ry rz
   end
   begin
      id 28
      name RightLeg
      direction 0.000000 -1.000000 0.000000
      length 17.609563
      axis 0.0 0.0 0.0 xyz
      dof rx ry rz
   end
   begin
      id 29
      name RightFoot
      direction 0.000000 -0.258819 0.965926
      length 6.085393
      axis 15.0 0.0 0.0 xyz
      dof rx ry rz
   end
   begin
      id 30
      name RightToeBase
      direction 0.000000 0.000000 1.000000
      length 2.952750
      axis 0.0 0.0 0.0 xyz
      dof rx ry rz
   end
:hierarchy
   begin
      root Spine_dum LeftUpLeg_dum RightUpLeg_dum
      Spine_dum Spine
      LeftUpLeg_dum LeftUpLeg
      RightUpLeg_dum RightUpLeg
      Spine Spine_dum1 Spine_dum2 Spine_dum3
      Spine_dum1 Head
      Spine_dum2 LeftShoulder
      Spine_dum3 RightShoulder
      LeftShoulder LeftArm
      LeftArm LeftForeArm
      LeftForeArm LeftHand
      LeftHand LeftHand_dum1 LeftHand_dum2
      LeftHand_dum1 LeftHandThumb1
      RightShoulder RightArm
      RightArm RightForeArm
      RightForeArm RightHand
      RightHand RightHand_dum1 RightHand_dum2
      RightHand_dum1 RightHandThumb1
      LeftUpLeg LeftLeg
      LeftLeg LeftFoot
      LeftFoot LeftToeBase
      RightUpLeg RightLeg
      RightLeg RightFoot
      RightFoot RightToeBase
   end

# File created by Blade
# Date/Time:  Wed Jan 28 15:40:07 2015
# Frame Rate: 120.000 fps
#------------------------------------------------------
:FULLY-SPECIFIED
:DEGREES
635
root -6.732297 41.006990 -13.595239 -5.533581 -48.418420 49.226731
Spine 10.528448 4.064426 16.688026
Head -4.613331 -30.370335 -18.989423
LeftShoulder -17.566165 17.493753 -8.451608
LeftArm 6.353952 10.456222 -86.066930
LeftForeArm -13.015213 -0.000000 7.700020
LeftHand 0.827013 0.000000 -13.445889
LeftHandThumb1 -26.253704 0.000000 33.147579
RightShoulder -4.754123 11.577129 -37.868695
RightArm 12.931688 36.148340 46.562155
RightForeArm -26.320214 -0.000000 106.797922
RightHand -22.954026 -0.000000 -48.607947
RightHandThumb1 -24.326973 -0.000000 -32.862282
LeftUpLeg -13.933023 1.601800 20.798827
LeftLeg 149.751251 -0.000000 -0.000000
LeftFoot 17.741471 2.020316 -28.967927
LeftToeBase 9.232044 -0.000000 -0.000000
RightUpLeg -41.615089 -10.627334 -23.158342
RightLeg 26.979037 -0.000000 -0.000000
RightFoot -22.699936 -9.731028 21.805060
RightToeBase 8.249912 -0.000000 -0.000000
636
root -6.695646 40.983826 -13.616334 -5.707477 -48.357702 49.538842
Spine 10.461878 3.714693 16.545291
Head -4.567535 -30.220800 -18.858161
LeftShoulder -17.501062 17.461583 -8.283927
LeftArm 6.239043 10.480718 -86.011367
LeftForeArm -12.862992 -0.000000 7.770585
LeftHand 0.856165 -0.000000 -13.448128
LeftHandThumb1 -26.253704 0.000000 33.147579
RightShoulder -4.820279 11.666690 -37.854522
RightArm 13.530438 36.007558 47.157773
RightForeArm -26.920713 0.000000 107.182420
RightHand -23.065994 -0.000000 -47.857541
RightHandThumb1 -24.326973 -0.000000 -32.862282
LeftUpLeg -13.976025 1.127333 21.008995
LeftLeg 149.740497 -0.000000 -0.000000
LeftFoot 17.558467 2.095712 -28.378539
LeftToeBase 9.370618 -0.000000 -0.000000
RightUpLeg -41.496166 -11.252863 -22.845687
RightLeg 26.255842 -0.000000 -0.000000
RightFoot -23.078517 -10.043089 21.286880
RightToeBase 8.763310 -0.000000 -0.000000
637
root -6.656496 40.952976 -13.638208 -5.997061 -48.364188 49.964918
Spine 10.479852 3.376519 16.269449
Head -4.573161 -30.098452 -18.589299
LeftShoulder -17.517003 17.589753 -8.145033
LeftArm 6.374448 10.514523 -85.898131
LeftForeArm -12.864641 0.000000 7.808975
LeftHand 0.713264 -0.000000 -13.562879
LeftHandThumb1 -26.253704 0.000000 33.147579
RightShoulder -4.799491 11.988582 -37.807597
RightArm 13.862775 35.801910 47.479595
RightForeArm -27.483317 -0.000000 107.276064
RightHand -23.099909 0.000000 -47.103485
RightHandThumb1 -24.326973 -0.000000 -32.862282
LeftUpLeg -13.949668 0.679571 21.149958
LeftLeg 149.732759 -0.000000 -0.000000
LeftFoot 17.440295 2.117144 -27.882256
LeftToeBase 9.268960 -0.000000 -0.000000
RightUpLeg -41.357809 -11.950591 -22.442658
RightLeg 25.321815 -0.000000 -0.000000
RightFoot -23.551108 -10.709474 20.033276
RightToeBase 9.868130 -0.000000 -0.000000
638
root -6.617638 40.913155 -13.662441 -6.353642 -48.456207 50.466982
Spine 10.531567 3.143098 15.931252
Head -4.541105 -29.980884 -18.312520
LeftShoulder -17.448401 17.552934 -7.898876
LeftArm 6.274859 10.593846 -85.855208
LeftForeArm -12.562236 -0.000000 7.855412
LeftHand 0.800823 -0.000000 -13.500048
LeftHandThumb1 -26.253704 0.000000 33.147579
RightShoulder -4.752232 12.176350 -37.753520
RightArm 14.192652 35.634265 47.665193
RightForeArm -27.951074 -0.000000 107.073429
RightHand -23.082063 -0.000000 -46.779019
RightHandThumb1 -24.326973 -0.000000 -32.862282
LeftUpLeg -13.856360 0.342181 21.239722
LeftLeg 149.664764 -0.000000 -0.000000
LeftFoot 17.405026 2.218654 -27.334158
LeftToeBase 8.965129 -0.000000 -0.000000
RightUpLeg -41.268641 -12.681782 -21.928628
RightLeg 24.352646 -0.000000 -0.000000
RightFoot -23.961649 -11.339080 19.069371
RightToeBase 10.041724 -0.000000 -0.000000
639
root -6.577554 40.865946 -13.686058 -6.806453 -48.613106 51.055713
Spine 10.664794 2.988770 15.525442
Head -4.561563 -29.860482 -17.993222
LeftShoulder -17.429886 17.659556 -7.688076
LeftArm 6.419960 10.774238 -85.734788
LeftForeArm -12.699164 -0.000000 7.814203
LeftHand 0.920384 -0.000000 -13.683717
LeftHandThumb1 -26.253704 0.000000 33.147579
RightShoulder -4.742524 12.324143 -37.705596
RightArm 14.628625 35.565185 48.028640
RightForeArm -28.420264 0.000000 106.689349
RightHand -23.237478 -0.000000 -46.210755
RightHandThumb1 -24.326973 -0.000000 -32.862282
LeftUpLeg -13.695750 0.072114 21.272619
LeftLeg 149.598471 -0.000000 -0.000000
LeftFoot 17.335002 2.336357 -26.844694
LeftToeBase 9.133240 -0.000000 -0.000000
RightUpLeg -41.109142 -13.218544 -21.556668
RightLeg 23.257170 -0.000000 -0.000000
RightFoot -24.406784 -12.021314 18.107556
RightToeBase 10.662862 -0.000000 -0.000000
640
root -6.528749 40.812798 -13.721146 -7.173533 -48.897136 51.746930
Spine 10.660486 3.023063 15.009582
Head -4.578751 -29.770830 -17.558163
LeftShoulder -17.373092 17.785917 -7.466909
LeftArm 6.509873 10.856102 -85.586889
LeftForeArm -12.772477 -0.000000 7.870013
LeftHand 0.996217 -0.000000 -13.572057
LeftHandThumb1 -26.253704 0.000000 33.147579
RightShoulder -4.675407 12.492510 -37.637088
RightArm 14.881794 35.515455 48.178525
RightForeArm -28.497476 0.000000 106.198231
RightHand -23.235841 -0.000000 -46.199406
RightHandThumb1 -24.326973 -0.000000 -32.862282
LeftUpLeg -13.630464 -0.033191 21.252752
LeftLeg 149.517858 -0.000000 -0.000000
LeftFoot 17.275526 2.444412 -26.464705
LeftToeBase 9.244632 -0.000000 -0.000000
RightUpLeg -41.155259 -13.318631 -21.490075
RightLeg 22.324701 -0.000000 -0.000000
RightFoot -24.705509 -12.820554 16.944518
RightToeBase 10.517610 -0.000000 -0.000000
641
root -6.466653 40.767855 -13.757944 -7.694228 -49.230866 52.552654
Spine 10.843873 3.076250 14.502614
Head -4.785501 -29.709262 -17.364629
LeftShoulder -17.285911 17.743180 -7.210352
LeftArm 6.529618 10.945398 -85.542966
LeftForeArm -12.868273 -0.000000 7.884211
LeftHand 1.076813 -0.000000 -13.504019
LeftHandThumb1 -26.253704 0.000000 33.147579
RightShoulder -4.581087 12.645635 -37.636153
RightArm 15.181519 35.855307 48.255682
RightForeArm -28.936403 -0.000000 106.591186
RightHand -22.648950 -0.000000 -47.287150
RightHandThumb1 -24.326973 -0.000000 -32.862282
LeftUpLeg -13.532011 -0.026461 21.109628
LeftLeg 149.470485 -0.000000 -0.000000
LeftFoot 17.154223 2.656921 -26.202258
LeftToeBase 9.670527 -0.000000 -0.000000
RightUpLeg -41.318257 -13.045867 -21.819823
RightLeg 21.943051 -0.000000 -0.000000
RightFoot -24.999419 -13.029805 16.350333
RightToeBase 11.199234 -0.000000 -0.000000
642
root -6.394600 40.746539 -13.796250 -8.057472 -49.648656 53.369622
Spine 10.920381 3.274650 14.123687
Head -5.053293 -29.695730 -17.347257
LeftShoulder -17.232481 17.795056 -7.162219
LeftArm 6.716701 11.053338 -85.431514
LeftForeArm -12.826703 -0.000000 7.874659
LeftHand 1.013611 -0.000000 -13.527572
LeftHandThumb1 -26.253704 0.000000 33.147579
RightShoulder -4.600676 12.621646 -37.704685
RightArm 15.821175 36.574638 48.506396
RightForeArm -28.948730 -0.000000 106.883607
RightHand -23.660882 -0.000000 -47.161652
RightHandThumb1 -24.326973 -0.000000 -32.862282
LeftUpLeg -13.628524 0.158098 20.865883
LeftLeg 149.438834 -0.000000 -0.000000
LeftFoot 17.053595 2.897388 -26.194209
LeftToeBase 9.536476 -0.000000 -0.000000
RightUpLeg -41.967084 -12.731218 -22.235389
RightLeg 22.063678 -0.000000 -0.000000
RightFoot -25.511729 -12.480328 17.151304
RightToeBase 12.237847 -0.000000 -0.000000
643
root -6.309546 40.747626 -13.837460 -8.431894 -50.137798 54.227100
Spine 11.094833 3.527584 13.825792
Head -5.494819 -29.670983 -17.331722
LeftShoulder -17.091214 17.616119 -7.099546
LeftArm 6.697917 10.693743 -85.509153
LeftForeArm -12.445087 -0.000000 7.892134
LeftHand 1.026591 -0.000000 -13.394777
LeftHandThumb1 -26.253704 0.000000 33.147579
RightShoulder -4.623586 12.814702 -37.880157
RightArm 16.333169 37.162606 48.696633
RightForeArm -27.684858 -0.000000 106.674983
RightHand -22.629525 0.000000 -47.577088
RightHandThumb1 -24.326973 -0.000000 -32.862282
LeftUpLeg -13.786636 0.424425 20.536372
LeftLeg 149.425892 -0.000000 -0.000000
LeftFoot 16.991814 3.081874 -26.456123
LeftToeBase 9.517802 -0.000000 -0.000000
RightUpLeg -42.890325 -12.448628 -22.631651
RightLeg 22.485852 -0.000000 -0.000000
RightFoot -25.892236 -11.792853 18.383728
RightToeBase 12.814125 -0.000000 -0.000000
644
root -6.225448 40.760354 -13.869468 -8.671877 -50.650292 54.964145
Spine 11.221132 3.725305 13.764635
Head -5.956550 -29.585800 -17.659640
LeftShoulder -17.034544 17.408424 -7.216491
LeftArm 6.694570 10.611080 -85.539871
LeftForeArm -12.414143 0.000000 7.848681
LeftHand 1.107225 -0.000000 -13.144298
LeftHandThumb1 -26.253704 0.000000 33.147579
RightShoulder -4.590028 13.187718 -38.209447
RightArm 16.628522 37.474683 48.694853
RightForeArm -28.124018 -0.000000 106.435939
RightHand -22.838996 -0.000000 -47.749057
RightHandThumb1 -24.326973 -0.000000 -32.862282
LeftUpLeg -13.979267 0.812556 20.213322
LeftLeg 149.455001 -0.000000 -0.000000
LeftFoot 16.720111 3.187720 -26.561735
LeftToeBase 9.556110 -0.000000 -0.000000
RightUpLeg -43.797807 -12.200682 -22.965649
RightLeg 22.852983 -0.000000 -0.000000
RightFoot -26.175781 -10.934560 19.855062
RightToeBase 12.317181 -0.000000 -0.000000
645
root -6.151434 40.772788 -13.895301 -8.726467 -51.135202 55.363383
Spine 11.405941 3.785557 14.041228
Head -6.359521 -29.437879 -18.194354
LeftShoulder -17.109526 17.328305 -7.549814
LeftArm 6.860370 10.752940 -85.512811
LeftForeArm -12.330816 -0.000000 7.794084
LeftHand 1.152460 0.000000 -13.061662
LeftHandThumb1 -26.253704 0.000000 33.147579
RightShoulder -4.491102 13.483127 -38.634731
RightArm 17.079846 38.029022 48.813797
RightForeArm -27.867106 0.000000 106.399526
RightHand -23.069319 0.000000 -47.926999
RightHandThumb1 -24.326973 -0.000000 -32.862282
LeftUpLeg -14.096651 1.210006 20.090664
LeftLeg 149.512181 -0.000000 -0.000000
LeftFoot 16.369487 3.208836 -26.270790
LeftToeBase 9.345794 -0.000000 -0.000000
RightUpLeg -44.538175 -12.210743 -22.920900
RightLeg 23.118841 -0.000000 -0.000000
RightFoot -26.303515 -10.074693 21.202719
RightToeBase 11.711866 -0.000000 -0.000000
